<?xml version="1.0" encoding="iso-8859-1"?>
<!-- Generator: Adobe Illustrator 19.0.0, SVG Export Plug-In . SVG Version: 6.00 Build 0)  -->
<svg version="1.1" id="Layer_1" xmlns="http://www.w3.org/2000/svg" xmlns:xlink="http://www.w3.org/1999/xlink" x="0px" y="0px"
	 viewBox="0 0 511.942 511.942" style="enable-background:new 0 0 511.942 511.942;" xml:space="preserve">
<g>
	<g>
		<g>
			<path d="M274.101,245.675l-54.306,54.306c-3.337,3.337-3.337,8.738,0,12.066c1.664,1.673,3.849,2.5,6.033,2.5
				c2.185,0,4.361-0.828,6.033-2.5l54.306-54.306c3.337-3.336,3.337-8.73,0-12.066S277.438,242.338,274.101,245.675z"/>
			<path d="M492.543,40.765c-11.085-11.085-25.182-17.903-39.697-19.226c-15.112-1.391-28.868,3.319-38.75,13.193
				c-9.498,9.498-14.208,22.946-13.244,37.385L275.318,197.65l-0.009,0.009c-0.017,0.017-0.034,0.034-0.051,0.051L2.439,476.135
				c-2.697,2.756-3.217,6.972-1.263,10.291c1.553,2.654,4.386,4.215,7.356,4.215c0.742,0,1.502-0.102,2.244-0.299
				c119.415-32.572,253.15-112.35,349.013-208.222c1.604-1.596,2.5-3.763,2.5-6.033c0-2.261-0.896-4.429-2.5-6.033l-18.099-18.099
				l119.501-119.501c14.473,0.998,27.887-3.746,37.385-13.244C518.535,99.244,515.83,64.052,492.543,40.765z M38.015,464.206
				l243.396-248.388l60.245,60.237C256.818,358.888,143.649,428.75,38.015,464.206z M347.724,197.65
				c-3.328,3.328-8.738,3.328-12.066,0c-3.337-3.336-3.337-8.738,0-12.066c3.328-3.337,8.738-3.337,12.066,0
				C351.06,188.912,351.06,194.314,347.724,197.65z M395.997,149.377c-3.336,3.337-8.738,3.337-12.066,0
				c-3.337-3.336-3.337-8.738,0-12.066c3.328-3.337,8.73-3.337,12.066,0C399.333,140.639,399.333,146.041,395.997,149.377z"/>
		</g>
	</g>
</g>
<g>
</g>
<g>
</g>
<g>
</g>
<g>
</g>
<g>
</g>
<g>
</g>
<g>
</g>
<g>
</g>
<g>
</g>
<g>
</g>
<g>
</g>
<g>
</g>
<g>
</g>
<g>
</g>
<g>
</g>
</svg>
